<?xml version="1.0" encoding="UTF-8"?>
<svg width="117px" height="40px" viewBox="0 0 117 40" version="1.1" xmlns="http://www.w3.org/2000/svg" xmlns:xlink="http://www.w3.org/1999/xlink">
    <!-- Generator: Sketch 54.1 (76490) - https://sketchapp.com -->
    <title>bruner-logo-white</title>
    <desc>Created with Sketch.</desc>
    <defs>
        <polygon id="path-1" points="0 0.128955224 39.6091633 0.128955224 39.6091633 39.9999851 0 39.9999851"></polygon>
    </defs>
    <g id="Symbols" stroke="none" stroke-width="1" fill="none" fill-rule="evenodd">
        <g id="Components/desktop/header/ppc-plans-transparent" transform="translate(-299.000000, -10.000000)">
            <g id="HEADER-light">
                <g id="bruner-logo-white" transform="translate(299.000000, 10.000000)">
                    <g id="Bits/Logo/Bruner-Dynamics-White">
                        <g id="Page-1">
                            <g id="Group-3">
                                <mask id="mask-2" fill="white">
                                    <use xlink:href="#path-1"></use>
                                </mask>
                                <g id="Clip-2"></g>
                                <path d="M21.5901305,26.2017761 C21.4148576,26.1313284 21.216569,26.2177463 21.1469319,26.3949104 C21.138965,26.415209 20.4510039,28.105806 18.6808652,28.5386418 C17.9071856,28.5737164 17.1546037,28.6349104 16.4507087,28.4761045 C15.5246243,28.2674478 14.8098116,27.9007313 13.8478759,27.4544627 C13.3385811,27.7535672 13.8478759,28.8523731 15.215241,29.145806 C16.121408,29.3402836 17.1261292,29.5820746 18.0560496,29.3240149 C19.37399,29.2592388 20.2763211,28.6262537 20.8214672,28.068194 C21.4864126,27.3874478 21.7692394,26.6798358 21.7810423,26.6501343 C21.8506794,26.4729701 21.765256,26.2722239 21.5901305,26.2017761 M31.6124088,16.6625224 C31.5387883,16.4223731 31.4535124,16.1908806 31.4108744,16.0640149 C30.5923439,13.6226716 29.9816917,11.0929701 28.670538,8.85073134 C27.3766459,6.63789552 25.4037925,5.20908955 22.9716591,4.6650597 C21.646932,4.36864179 20.1848487,4.49446269 18.8143854,4.66849254 C17.1953237,4.87416418 15.6751112,5.46446269 14.6059167,6.84550746 C11.9778552,8.44267164 10.4160375,10.8255075 9.57537653,13.7647612 C9.34772825,14.5611791 9.0483774,15.3528209 8.66183268,16.0813284 C8.38062878,16.6108806 7.90025107,16.9971493 8.21317525,17.7211791 C8.30346737,17.9298358 7.27277982,18.8329701 7.09470368,19.0837164 C6.76643575,19.5455075 6.15637376,19.6723731 6.07109787,20.0113284 C5.98582197,20.3502836 6.9923136,20.0113284 7.33902355,19.7641642 C7.68573351,19.5168507 8.16478339,18.8767015 8.61019503,18.4696866 C8.75684596,18.3356567 9.06298348,18.2235672 9.21096224,18.2914776 C9.36041636,18.3601343 9.48169107,18.6653582 9.47947803,18.8653582 C9.47313398,19.418791 8.20107728,21.2938657 8.8859401,20.8789403 C9.57095045,20.4638657 9.75994426,20.1178955 10.1124081,19.648194 C10.4909859,21.3932687 11.1315879,22.9126716 10.8639573,24.4643134 C10.6160965,25.9010299 10.7459284,27.257597 10.9070378,28.6535672 C11.0563444,29.947 11.2676162,31.1838657 12.5998676,31.8328209 C12.7540429,31.9078955 12.8459579,32.1095373 12.9731341,32.2462537 C13.9409712,33.2865522 14.7673212,34.5438657 16.4166279,34.5432687 C16.4995432,34.5432687 16.604884,34.5996866 16.662128,34.6640149 C17.3503842,35.437597 18.0303783,35.2426716 18.7509448,34.6989403 C18.9018743,34.5850597 19.2987466,34.5407313 19.3784161,34.637 C19.9306439,35.3047612 20.7937304,34.9884925 21.4063005,35.3380448 C22.1723082,35.775209 22.6506204,35.4240149 23.0874749,34.8908806 C23.8554006,33.9540149 24.5817211,32.9825224 25.3382865,32.0361045 C25.6258344,31.6765522 25.9101366,31.1025224 26.262748,31.0449104 C27.7242411,30.8062537 27.9390537,29.7544627 28.05664,28.5838657 C28.2202576,26.9549104 28.3189593,25.3167015 28.5523615,23.698194 C28.7482895,22.3405821 28.9244477,21.0053582 28.6333589,19.6413284 C28.5815737,19.3992388 28.6504731,18.9220746 28.7658463,18.885806 C29.5985404,18.6238657 29.584967,18.1168507 29.46443,17.3714776 C29.4129399,17.0531194 29.8437454,16.5010299 30.1920783,16.3090896 C30.4129399,16.187597 30.5983929,16.236403 30.7525681,16.367597 C31.0352474,17.0129701 31.4422996,18.0925224 31.40276,18.6998358 C31.362335,19.3217761 31.2392899,21.2146119 30.1590302,22.4638657 C29.9917242,22.6572985 29.6326212,22.5947612 29.6312934,22.5946119 C29.4468732,22.555806 29.2664365,22.6765522 29.2285197,22.8632687 C29.1906029,23.0499851 29.309517,23.2323731 29.4940848,23.2707313 C29.5660824,23.285806 29.6572597,23.2961045 29.7590597,23.2961045 C30.0464601,23.2961045 30.417366,23.2134179 30.6726035,22.9183433 C30.9774132,22.565806 31.904973,21.4931194 32.0837868,18.7450597 C32.1224413,18.1489403 31.8611548,17.3092388 31.6124088,16.6625224 M39.6091633,20.0644627 C39.6091633,31.0746119 30.7423881,39.9999851 19.804648,39.9999851 C8.8667604,39.9999851 -1.47536151e-05,31.0746119 -1.47536151e-05,20.0644627 C-1.47536151e-05,9.05431343 8.8667604,0.128940299 19.804648,0.128940299 C30.7423881,0.128940299 39.6091633,9.05431343 39.6091633,20.0644627 M13.5290503,24.7999851 C13.7367812,24.0062537 13.7417974,23.1580448 13.8478759,22.1619254 C13.2506496,22.1619254 12.7027003,22.1156567 12.1699473,22.1859552 C11.9710686,22.2122239 11.636014,22.5335672 11.6551937,22.6813284 C11.7901892,23.7140149 11.7242406,24.8229701 12.5706555,25.8223731 C12.9436269,25.4426716 13.4313814,25.1735672 13.5290503,24.7999851 M19.5696229,23.9907313 C20.198127,24.0438657 20.8523022,24.2261045 21.4332996,24.4767015 C22.4543973,24.9171493 22.7521253,24.9455075 23.5092808,24.1692388 C23.8955304,23.7731194 24.2685018,23.3234179 24.5078055,22.828791 C25.2001926,21.3968507 25.8461059,19.9404328 26.4633971,18.4735672 C26.9515943,17.3134179 26.8157135,17.0238657 25.6044417,16.6537164 C25.2500598,16.5453582 24.8257459,16.6705821 24.4334472,16.6886418 C24.4594136,16.9946119 24.44466,17.3108806 24.5182805,17.6046119 C24.9114644,19.1740149 24.3573186,20.2689403 22.86322,20.8249104 C21.2283719,21.4332687 19.6597675,21.0634179 18.4822815,19.6286418 C17.982429,19.0195373 17.4713638,18.9114776 16.7813372,18.9919254 C15.9774127,19.085806 15.9145623,19.7134179 15.7544856,20.298791 C15.5001333,21.2284925 15.256256,22.0877463 14.5548692,22.8844627 C13.5824584,23.9890896 14.3729571,25.5943134 15.8492038,25.7855075 C16.5889501,25.8813284 17.3279587,25.848791 17.8849076,25.1535672 C18.0404107,24.9595373 18.2150935,25.1541642 18.3884485,24.706403 L18.3881534,24.706403 C18.9514465,24.4078955 19.0802455,23.9492388 19.5696229,23.9907313 M21.1101954,19.0590896 C21.3664657,18.9956567 21.9198738,18.7561045 21.9976254,18.3153582 C22.0563448,17.5419254 21.4251851,17.5246119 21.1557841,17.6862537 C20.7938779,17.927597 20.6302603,18.2026716 20.5440992,18.5113284 C20.4448074,18.8668507 20.7156838,19.157 21.1101954,19.0590896 M19.2996318,19.3680448 C18.9080708,18.7614776 19.0908681,18.2035672 19.4538071,17.6740149 C20.0730163,16.7705821 21.0734589,16.4719254 22.0073628,16.0820746 C22.138965,16.0271493 22.3896289,16.0962537 22.5057399,16.1993881 C23.212143,16.8274478 23.828254,17.5205821 23.8472861,18.8210299 C23.8626299,19.5274478 23.4411191,20.1386418 22.5243294,20.4656567 C21.5522137,20.8125224 19.8595315,20.2355075 19.2996318,19.3680448 M11.1429481,16.8911791 C10.4228242,17.2844627 10.0883597,17.6829701 10.2491741,18.7223731 C10.7143556,18.0610299 11.2956481,17.8399851 11.1429481,16.8911791 M23.1987172,12.5284925 C22.6773244,13.1749104 22.3272212,13.6689403 21.9111692,14.097597 C21.7249786,14.2895373 21.4063005,14.4547612 21.1487024,14.4531194 C19.849499,14.4446119 18.8837274,15.7035672 17.5063299,15.4059552 C17.3406468,15.3701343 17.1053266,15.6046119 16.9189885,15.7377463 C16.2872387,16.1896866 15.6630132,16.6523731 14.9266603,17.1908806 C15.1994546,17.8468507 15.4594133,18.4584925 16.2851732,18.4095373 C17.1246539,18.3598358 18.051771,18.6637164 18.6178672,17.6232687 C18.8751703,17.1504328 19.3095167,16.6972985 19.773813,16.4344627 C20.8776785,15.8093881 21.9343324,14.445806 23.350827,15.9416269 C23.4574956,16.0543134 23.6984221,16.088194 23.8708919,16.0755075 C24.2313227,16.048791 24.5536892,15.8686418 24.3986287,15.4499851 C24.0536892,14.5184925 23.6478172,13.6099851 23.1987172,12.5284925 M13.0663769,19.5728209 C13.2957957,19.3993881 13.5092805,19.3749104 13.4580854,18.9113284 C13.2533052,18.3153582 12.9213489,18.5147612 12.6773241,18.5789403 C12.5026413,18.6249104 12.2940252,18.8477463 12.2549281,19.0262537 C12.2149458,19.2083433 12.3061232,19.5229701 12.4455448,19.6137164 C12.5914581,19.7086418 12.919726,19.6835672 13.0663769,19.5728209 M11.2186342,20.5695373 C10.8391712,19.9131194 10.8602689,19.2202836 11.2651081,18.5684925 C11.3866779,18.3728209 11.556787,18.2032687 11.723798,18.0420746 C12.2128803,17.5699851 12.6116705,16.8925224 13.4787405,17.2895373 C14.2772061,17.655209 14.6754062,18.3440149 14.6150639,19.538791 C14.5842289,19.6711791 14.562246,20.0146119 14.4251849,20.3016269 C14.1447187,20.8890896 13.8679408,21.5534179 13.0883598,21.578791 C12.2968284,21.6047612 11.6264241,21.2750597 11.2186342,20.5695373 M13.9228243,16.5971493 C13.3012545,16.5892388 12.6804224,16.5268507 12.0005758,16.3426716 C14.2236505,15.2644627 15.835483,13.5535672 17.3095166,11.6861045 C17.1754063,12.2337164 17.1366043,12.8486418 16.8382862,13.2796866 C16.096917,14.3504328 15.2195195,15.3253582 14.382842,16.3267015 C14.2726325,16.4586418 14.0771471,16.5992388 13.9228243,16.5971493" id="Fill-1" fill="#FFFFFF" mask="url(#mask-2)"></path>
                            </g>
                            <path d="M76.5821391,8.74895031 L76.8226555,8.74895031 L77.7860368,8.74895031 L78.0265532,8.74895031 C78.2128254,8.74895031 78.3191205,8.64730551 78.3191205,8.44401591 L78.3191205,6.9446435 C78.3191205,6.7668023 78.2128254,6.6651575 78.0265532,6.6651575 L77.741004,6.6651575 L76.8676883,6.6651575 L76.5821391,6.6651575 C76.3958669,6.6651575 76.289718,6.7668023 76.289718,6.9446435 L76.289718,8.44401591 C76.289718,8.64730551 76.3958669,8.74895031 76.5821391,8.74895031 L76.5821391,8.74895031 Z M72.9707384,8.74895031 L73.2112548,8.74895031 L74.1746361,8.74895031 L74.4151525,8.74895031 C74.6014247,8.74895031 74.7077198,8.64730551 74.7077198,8.44401591 L74.7077198,6.9446435 C74.7077198,6.7668023 74.6014247,6.6651575 74.4151525,6.6651575 L74.1296033,6.6651575 L73.2562876,6.6651575 L72.9707384,6.6651575 C72.7844662,6.6651575 72.6781711,6.7668023 72.6781711,6.9446435 L72.6781711,8.44401591 C72.6781711,8.64730551 72.7844662,8.74895031 72.9707384,8.74895031 L72.9707384,8.74895031 Z M57.259537,18.9427481 C57.259537,16.8046356 55.9832651,15.3704468 53.1915208,15.3704468 L48.5386623,15.3704468 L48.5386623,22.4608785 L53.0320051,22.4608785 C55.6377696,22.4608785 57.259537,21.3512685 57.259537,18.9427481 L57.259537,18.9427481 Z M53.0053947,24.5446713 L46.5977172,24.5446713 C46.3849808,24.5446713 46.2786857,24.4364784 46.2786857,24.2470291 L46.2786857,8.31573214 L48.5386623,8.31573214 L48.5386623,13.2865052 L53.1915208,13.2865052 C55.1324659,13.2865052 56.4619585,12.3123223 56.4619585,10.2827004 C56.4619585,8.44237888 55.2921278,7.27859801 53.0320051,7.27859801 L50.4866255,7.27859801 L48.5386623,7.27859801 L47.3347646,7.27859801 L47.3347646,7.27859801 L45.6493955,7.27859801 C45.4631233,7.27859801 45.3568282,7.17680439 45.3568282,6.97351479 L45.3568282,5.47429119 C45.3568282,5.29644999 45.4631233,5.19480519 45.6493955,5.19480519 L46.5977172,5.19480519 L48.4781311,5.19480519 L53.0320051,5.19480519 C56.8342105,5.19480519 58.7485453,7.22442713 58.7485453,10.2827004 C58.7485453,12.1228731 57.8709896,13.5572107 56.4885688,14.2337514 C58.455978,14.9644629 59.5461239,16.6965915 59.5461239,18.9427481 C59.5461239,22.4608785 57.1530957,24.5446713 53.0053947,24.5446713 L53.0053947,24.5446713 Z M114.300661,30.7380095 C113.171477,30.4754891 112.418638,30.1797816 112.418638,29.3480206 C112.418638,28.5490002 113.139164,28.1220325 114.160883,28.1220325 C114.902902,28.1439092 115.591115,28.3738378 116.247162,28.8333973 C116.311787,28.8772995 116.37612,28.8772995 116.419252,28.8115206 L116.774105,28.2970461 C116.817091,28.24228 116.817091,28.1767987 116.741792,28.1328965 C115.924621,27.5309152 115.19313,27.2572332 114.236036,27.2572332 C112.762818,27.2572332 111.493857,27.8810912 111.493857,29.3261439 C111.493857,30.7819117 112.762818,31.3401396 114.063946,31.6356983 C115.290068,31.9095291 116.075072,32.1939262 116.075072,33.1024789 C116.075072,34.0220444 115.19313,34.4379993 114.214543,34.4379993 C113.408045,34.4271354 112.741179,34.1314279 111.99916,33.5623361 C111.945355,33.5184338 111.881022,33.5294466 111.83789,33.5950767 L111.472218,34.1095512 C111.429232,34.1753301 111.429232,34.2300963 111.493857,34.2847136 C112.34334,34.9853633 113.117671,35.3246753 114.182376,35.3246753 C115.698726,35.3246753 117,34.6460512 117,33.080751 C117,31.526166 115.731039,31.0666065 114.300661,30.7380095 L114.300661,30.7380095 Z M107.429057,33.8031286 C107.385925,33.7264857 107.321592,33.7154729 107.267787,33.7702391 C106.697712,34.2190835 105.988006,34.4490121 105.288973,34.4490121 C104.073817,34.4490121 103.396131,33.7264857 103.396131,32.6100299 L103.396131,29.9718786 C103.396131,28.8554228 104.062998,28.1328965 105.278154,28.1328965 C105.891214,28.1328965 106.547261,28.3299356 107.074204,28.7240138 C107.149503,28.767916 107.213981,28.767916 107.256967,28.7021371 L107.601147,28.1876626 C107.644133,28.1220325 107.644133,28.0672664 107.579508,28.0233641 C106.912934,27.5199024 106.095471,27.2572332 105.288973,27.2572332 C103.740311,27.2572332 102.482169,28.1657859 102.482169,29.9718786 L102.482169,32.6208939 C102.482169,34.4161226 103.729491,35.3246753 105.310466,35.3246753 C106.170915,35.3246753 107.063384,35.0728701 107.751598,34.4926166 C107.826896,34.4379993 107.826896,34.3832331 107.78391,34.3065903 L107.429057,33.8031286 Z M97.8686413,27.3776295 L97.2019212,27.3776295 C97.1159494,27.3776295 97.0728173,27.4215317 97.0728173,27.4980257 L97.0728173,35.083734 C97.0728173,35.1605257 97.1159494,35.2042791 97.2019212,35.2042791 L97.8686413,35.2042791 C97.944086,35.2042791 97.9869257,35.1605257 97.9869257,35.083734 L97.9869257,27.4980257 C97.9869257,27.4215317 97.944086,27.3776295 97.8686413,27.3776295 L97.8686413,27.3776295 Z M92.2015202,27.3776295 L91.3842032,27.3776295 C91.3195782,27.3776295 91.2659189,27.399655 91.2444259,27.4651363 L89.5666598,30.5629959 C89.2977786,31.0555937 88.8999397,31.8656269 88.7063569,32.2815818 L88.6740444,32.2815818 C88.4804616,31.8656269 88.0824765,31.0555937 87.8137415,30.5519832 L86.146795,27.4651363 C86.1144824,27.399655 86.0608232,27.3776295 86.0070177,27.3776295 L85.1897007,27.3776295 C85.1037289,27.3776295 85.0605967,27.4215317 85.0605967,27.4980257 L85.0605967,35.083734 C85.0605967,35.1605257 85.1037289,35.2042791 85.1897007,35.2042791 L85.8564208,35.2042791 C85.9317192,35.2042791 85.9747051,35.1605257 85.9747051,35.083734 L85.9747051,31.7779713 C85.9747051,30.8585546 85.9423926,29.7420988 85.9208996,28.8115206 L85.9423926,28.8006567 C86.2220934,29.3916252 86.5554535,30.0375087 86.9211261,30.7272944 L88.2653859,33.2667774 C88.2868788,33.3213947 88.3406843,33.3542842 88.4051632,33.3542842 L88.9750919,33.3542842 C89.039717,33.3542842 89.0935225,33.3213947 89.125835,33.2667774 L90.4700948,30.7272944 C90.8249479,30.0375087 91.1583079,29.3916252 91.4486821,28.8006567 L91.4700288,28.8115206 C91.4380087,29.7420988 91.4056962,30.8585546 91.4056962,31.7779713 L91.4056962,35.083734 C91.4056962,35.1605257 91.4486821,35.2042791 91.5238343,35.2042791 L92.2015202,35.2042791 C92.2766725,35.2042791 92.3198046,35.1605257 92.3198046,35.083734 L92.3198046,27.4980257 C92.3198046,27.4215317 92.2766725,27.3776295 92.2015202,27.3776295 L92.2015202,27.3776295 Z M79.1145059,32.2925946 L77.8025586,28.4174424 L77.7595727,28.4174424 L76.4474792,32.2925946 L79.1145059,32.2925946 Z M81.0073477,35.0618573 C81.0396603,35.1495129 80.9966744,35.2042791 80.9105564,35.2042791 L80.1900307,35.2042791 C80.1255519,35.2042791 80.0717464,35.1713896 80.0501072,35.1057595 L79.3942067,33.1572451 L76.1679246,33.1572451 L75.5012045,35.1057595 C75.4797115,35.1713896 75.4367256,35.2042791 75.3614272,35.2042791 L74.6409016,35.2042791 C74.5547835,35.2042791 74.522471,35.1495129 74.543964,35.0618573 L77.2218103,27.476149 C77.2433032,27.4105189 77.2864353,27.3776295 77.3510604,27.3776295 L78.2005437,27.3776295 C78.2650226,27.3776295 78.3188281,27.4105189 78.3404672,27.476149 L81.0073477,35.0618573 Z M70.5329698,27.3776295 L69.8662497,27.3776295 C69.7909513,27.3776295 69.7479654,27.4215317 69.7479654,27.4980257 L69.7479654,30.8148012 C69.7479654,31.7342179 69.7694583,32.8726992 69.8124442,33.7812519 L69.7801317,33.7921158 C69.5113967,33.2777901 69.167217,32.6973879 68.8768429,32.1939262 L66.0270529,27.4651363 C65.9947404,27.4105189 65.9301153,27.3776295 65.8763099,27.3776295 L65.1236179,27.3776295 C65.0376461,27.3776295 64.994514,27.4215317 64.994514,27.4980257 L64.994514,35.083734 C64.994514,35.1605257 65.0376461,35.2042791 65.1236179,35.2042791 L65.7796647,35.2042791 C65.8549631,35.2042791 65.9086224,35.1605257 65.9086224,35.083734 L65.9086224,31.7671073 C65.9086224,30.9024568 65.8763099,29.7748395 65.8441435,28.910189 L65.8657827,28.8991762 C66.1345177,29.4245146 66.4893707,30.0485214 66.801384,30.5629959 L69.629681,35.1276362 C69.6619935,35.1824024 69.7156528,35.2042791 69.7801317,35.2042791 L70.5329698,35.2042791 C70.6082683,35.2042791 70.6514004,35.1605257 70.6514004,35.083734 L70.6514004,27.4980257 C70.6514004,27.4215317 70.6082683,27.3776295 70.5329698,27.3776295 L70.5329698,27.3776295 Z M61.0373253,27.3776295 L60.2629942,27.3776295 C60.2091888,27.3776295 60.1447099,27.399655 60.123217,27.4651363 L58.1444033,31.3730291 L56.1547701,27.4651363 C56.1332771,27.399655 56.0796179,27.3776295 56.0149928,27.3776295 L55.2408079,27.3776295 C55.1440165,27.3776295 55.111704,27.4432596 55.1548361,27.5309152 L57.6819393,32.2268156 L57.6819393,35.083734 C57.6819393,35.1605257 57.7249252,35.2042791 57.8003699,35.2042791 L58.4777634,35.2042791 C58.5638814,35.2042791 58.6067211,35.1605257 58.6067211,35.083734 L58.6067211,32.2486923 L61.1232972,27.5309152 C61.1662831,27.4432596 61.1339705,27.3776295 61.0373253,27.3776295 L61.0373253,27.3776295 Z M50.916777,30.1907944 C50.916777,28.8991762 50.2500568,28.231416 49.0563939,28.231416 L47.2388505,28.231416 L47.2388505,34.328467 L49.0563939,34.328467 C50.2500568,34.328467 50.916777,33.6935962 50.916777,32.4348675 L50.916777,30.1907944 Z M51.8631979,30.1907944 L51.8631979,32.4348675 C51.8631979,34.2082196 50.8093122,35.2042791 49.0670672,35.2042791 L46.4431726,35.2042791 C46.3570546,35.2042791 46.3139225,35.1605257 46.3139225,35.083734 L46.3139225,27.4980257 C46.3139225,27.4215317 46.3570546,27.3776295 46.4431726,27.3776295 L49.0670672,27.3776295 C50.8093122,27.3776295 51.8631979,28.3957145 51.8631979,30.1907944 L51.8631979,30.1907944 Z M116.227862,12.4205153 C116.440745,12.4746861 116.54704,12.3664932 116.54704,12.1499585 L116.54704,10.8238139 C116.54704,10.6345134 116.467209,10.4990863 116.281229,10.4720008 C115.323988,10.3367225 114.419969,10.2554661 113.542413,10.2554661 C111.97372,10.2554661 110.325488,10.6072792 108.995849,11.2568832 C108.83648,11.3109053 108.783405,11.4463325 108.783405,11.6086963 L108.783405,24.2470291 C108.783405,24.4364784 108.889554,24.5446713 109.07568,24.5446713 L110.644373,24.5446713 C110.85711,24.5446713 110.963551,24.4364784 110.963551,24.2470291 L110.963551,12.7723283 C111.681445,12.4746861 112.74498,12.2312149 113.83498,12.2312149 C114.632705,12.2312149 115.483504,12.3123223 116.227862,12.4205153 L116.227862,12.4205153 Z M98.2021476,16.777699 L105.061908,16.777699 L105.061908,15.6410035 C105.061908,13.340676 103.5729,12.2581515 101.631955,12.2581515 C99.6379353,12.2581515 98.2021476,13.3137394 98.2021476,15.6410035 L98.2021476,16.777699 Z M106.869948,22.8939479 C105.540309,24.0304945 103.838711,24.8424623 101.605491,24.8424623 C98.7337692,24.8424623 95.9953917,23.1645046 95.9953917,19.7545671 L95.9953917,15.6410035 C95.9953917,11.9334239 98.7073051,10.2554661 101.631955,10.2554661 C104.529994,10.2554661 107.188833,11.9334239 107.188833,15.6410035 L107.188833,18.2932929 C107.188833,18.5098275 107.082392,18.6178717 106.896412,18.6178717 L98.2021476,18.6178717 L98.2021476,19.7545671 C98.2021476,21.784189 99.6910097,22.8667136 101.658565,22.8667136 C103.493069,22.8667136 104.742877,22.1360021 105.726581,21.3512685 C105.885951,21.2430756 106.045613,21.2700122 106.152054,21.4325248 L106.923022,22.4608785 C107.055928,22.6232423 107.029317,22.7586695 106.869948,22.8939479 L106.869948,22.8939479 Z M88.1245851,10.2554661 C86.2899351,10.2554661 84.535116,10.6614501 83.0196436,11.3109053 C82.8601279,11.3921616 82.806761,11.5274399 82.806761,11.6898037 L82.806761,24.2470291 C82.806761,24.4364784 82.9132023,24.5446713 83.0993284,24.5446713 L84.6680214,24.5446713 C84.8807578,24.5446713 84.987199,24.4364784 84.987199,24.2470291 L84.987199,12.7453917 C85.8113879,12.4746861 87.0078289,12.2581515 88.1245851,12.2581515 C90.5174671,12.2581515 91.9266444,13.340676 91.9266444,16.1551804 L91.9266444,24.2470291 C91.9266444,24.4364784 92.0329395,24.5446713 92.2190655,24.5446713 L93.7879048,24.5446713 C94.0004949,24.5446713 94.10679,24.4364784 94.10679,24.2470291 L94.10679,16.1011583 C94.10679,11.9603605 91.6872977,10.2554661 88.1245851,10.2554661 L88.1245851,10.2554661 Z M80.7630299,10.5532571 L79.1943369,10.5532571 C78.9816005,10.5532571 78.8753054,10.6885355 78.8753054,10.8779847 L78.8753054,22.3525367 C78.0511165,22.6503277 76.9343603,22.8667136 75.8177503,22.8667136 C73.5044069,22.8667136 72.1219861,21.784189 72.1219861,18.9427481 L72.1219861,10.7156209 C72.1219861,10.5261717 72.0155448,10.3908933 71.8294188,10.3908933 L70.2607258,10.3908933 C70.0479894,10.3908933 69.9416943,10.5261717 69.9416943,10.7156209 L69.9416943,18.9967701 C69.9416943,23.137568 72.3347225,24.8424623 75.8177503,24.8424623 C77.6256438,24.8424623 79.3538526,24.4635638 80.8428609,23.7868744 C81.0023766,23.7328523 81.0555972,23.5704885 81.0555972,23.4081247 L81.0555972,10.8779847 C81.0555972,10.6885355 80.9491559,10.5532571 80.7630299,10.5532571 L80.7630299,10.5532571 Z M66.3788355,12.2312149 C65.2888359,12.2312149 64.2253003,12.4746861 63.5075527,12.7723283 L63.5075527,24.2470291 C63.5075527,24.4364784 63.4011114,24.5446713 63.188375,24.5446713 L61.619682,24.5446713 C61.4335559,24.5446713 61.3271147,24.4364784 61.3271147,24.2470291 L61.3271147,11.6086963 C61.3271147,11.4463325 61.3804815,11.3109053 61.5399972,11.2568832 C62.8693436,10.6072792 64.5178676,10.2554661 66.0864144,10.2554661 C66.963824,10.2554661 67.8678438,10.3367225 68.8250843,10.4720008 C69.0112104,10.4990863 69.0908951,10.6345134 69.0908951,10.8238139 L69.0908951,12.1499585 C69.0908951,12.3664932 68.9844538,12.4746861 68.7720099,12.4205153 C68.0273595,12.3123223 67.1765603,12.2312149 66.3788355,12.2312149 L66.3788355,12.2312149 Z" id="Fill-4" fill="#FFFFFF"></path>
                        </g>
                    </g>
                </g>
            </g>
        </g>
    </g>
</svg>