<?xml version="1.0" encoding="UTF-8"?>
<svg width="20px" height="20px" viewBox="0 0 20 20" version="1.1" xmlns="http://www.w3.org/2000/svg" xmlns:xlink="http://www.w3.org/1999/xlink">
    <!-- Generator: Sketch 54.1 (76490) - https://sketchapp.com -->
    <title>money</title>
    <desc>Created with Sketch.</desc>
    <defs>
        <path d="M9.659,3.1249 L10.659,3.1249 L10.659,4.6729 L9.659,4.6729 L9.659,3.1249 Z M10.659,3.1249 L10.659,4.6729 L9.659,4.6729 L9.659,3.1249 L10.659,3.1249 Z M6.43001232,14.3569628 L7.14598768,13.6588372 C7.29446547,13.8111113 7.58815067,14.0555152 7.99597792,14.3019695 C8.67034828,14.7094986 9.40099382,14.9519 10.159,14.9519 C11.9605004,14.9519 13.156,13.9885616 13.156,12.4829 C13.156,11.0411159 12.4486016,10.6040309 10.1245068,10.1542934 C10.0752827,10.144774 10.0752827,10.144774 10.0259323,10.13524 C7.30292378,9.60911695 6.283,9.01076829 6.283,7.0419 C6.283,5.16937513 8.08799941,4.1729 10.159,4.1729 C11.2567445,4.1729 12.1608238,4.41347758 12.8789829,4.81902215 C13.3263635,5.07165802 13.6171384,5.33397567 13.7687675,5.5290472 L12.9792325,6.1427528 C12.9048616,6.04707433 12.712199,5.87326698 12.3872671,5.68977785 C11.8182387,5.36844742 11.0833805,5.1729 10.159,5.1729 C8.56683117,5.1729 7.283,5.88165693 7.283,7.0419 C7.283,8.3315494 7.93168633,8.71210782 10.2156377,9.15339892 C10.2649902,9.16293334 10.2649902,9.16293334 10.3144932,9.17250664 C13.0673853,9.7052211 14.156,10.3778508 14.156,12.4829 C14.156,14.594135 12.4710184,15.9519 10.159,15.9519 C9.19938118,15.9519 8.29783922,15.6528014 7.47877208,15.1578305 C6.99053683,14.8627848 6.63353453,14.5656887 6.43001232,14.3569628 Z M10,0.4999 C15.2463356,0.4999 19.5,4.75356437 19.5,9.9999 C19.5,15.2462356 15.2463356,19.4999 10,19.4999 C4.75366437,19.4999 0.5,15.2462356 0.5,9.9999 C0.5,4.75356437 4.75366437,0.4999 10,0.4999 Z M10,1.4999 C5.30594912,1.4999 1.5,5.30584912 1.5,9.9999 C1.5,14.6939509 5.30594912,18.4999 10,18.4999 C14.6940509,18.4999 18.5,14.6939509 18.5,9.9999 C18.5,5.30584912 14.6940509,1.4999 10,1.4999 Z M9.659,15.4519 L10.659,15.4519 L10.659,17.0579 L9.659,17.0579 L9.659,15.4519 Z M10.659,15.4519 L10.659,17.0579 L9.659,17.0579 L9.659,15.4519 L10.659,15.4519 Z" id="path-1"></path>
    </defs>
    <g id="Symbols-IconLibrary" stroke="none" stroke-width="1" fill="none" fill-rule="evenodd">
        <g id="Bits/Icons/Icon-free-zone">
            <g id="money">
                <g id="Icon-_Placeholder">
                    <path d="M0,0 L20,0 L20,20 L0,20 L0,0 Z" id="Bounds"></path>
                    <g id="IconColor">
                        <mask id="mask-2" fill="white">
                            <use xlink:href="#path-1"></use>
                        </mask>
                        <use id="Mask" fill="#003961" fill-rule="nonzero" xlink:href="#path-1"></use>
                        <g id="Bits/Colors/Charcoal" mask="url(#mask-2)" fill="#202E39">
                            <rect id="Rectangle" x="0" y="0" width="20" height="20"></rect>
                        </g>
                    </g>
                </g>
            </g>
        </g>
    </g>
</svg>